# xmcd CD database file
#
# Track frame offsets:
#	150
#	14753
#	25875
#	40672
#	59736
#	77904
#	92372
#	106474
#	125368
#	141070
#	154928
#	170184
#	183134
#	195637
#	210210
#	229065
#	240971
#
# Disc length: 3375 seconds
#
# Revision: 0
# Processed by: cddbd v1.5.1PL2 Copyright (c) Steve Scherf et al.
# Submitted via: CDex 1.51
#
DISCID=dc0d2d11
DTITLE=Various Artist - Country Music Festival
DYEAR=2002
DGENRE=Country
TTITLE0=That Girl Likes To Dance - Buddy Dee
TTITLE1=To Late To Turn Back Now - Suzanne Klee
TTITLE2=The Change Is GOne Do Me Good - Ricky Lynn
TTITLE3=Blue Moon Of Kentucky - Mustang Sally
TTITLE4=Long Haired Country Boy - Krueger Brothers
TTITLE5=Heartbreacker - Marry Duff
TTITLE6=Nothing Has Changed - Good Brothers
TTITLE7=Why Do I Have To Choose - Sunday Skifflers
TTITLE8=They Ain't Made A Honky Tonk - Carl Ray
TTITLE9=Amazing Grace - Angy Burri
TTITLE10=There's Is Music In The Mountains - Jeff Turner
TTITLE11=Lolita - Margo Rochelle
TTITLE12=I Wish I Could Tell Them - John Brack
TTITLE13=I Will Sing My Song - Vicki Vann
TTITLE14=Words Are Not Enough 
TTITLE15=Dont Follow Me - Country Sisters
TTITLE16=Next Year Better - Richard Dobson
EXTD=YEAR: 2002
EXTT0=
EXTT1=
EXTT2=
EXTT3=
EXTT4=
EXTT5=
EXTT6=
EXTT7=
EXTT8=
EXTT9=
EXTT10=
EXTT11=
EXTT12=
EXTT13=
EXTT14=
EXTT15=
EXTT16=
PLAYORDER=
